<svg xmlns="http://www.w3.org/2000/svg" viewBox="0 0 2200 600" fill="#F7F7F7">
  
  <g transform="translate(40, 30) scale(0.43)">
    <path fill-rule="evenodd" d="M588.500 344.051 C 520.202 349.556,455.999 365.931,397.496 392.765 C 380.840 400.405,351.893 416.402,346.750 420.810 C 345.096 422.228,345.000 431.771,345.000 594.988 C 345.000 689.961,344.776 767.890,344.503 768.164 C 344.230 768.437,340.967 768.021,337.253 767.239 C 324.660 764.588,307.229 767.516,291.373 774.947 C 261.051 789.156,242.426 816.803,246.035 842.249 C 252.188 885.628,314.087 890.479,352.957 850.628 C 360.953 842.429,366.326 834.090,370.381 823.582 L 373.500 815.500 373.764 646.719 L 374.028 477.938 378.764 474.922 C 387.219 469.539,417.090 455.351,434.000 448.687 C 485.836 428.261,547.627 415.262,602.250 413.292 L 619.000 412.688 619.000 532.344 C 619.000 627.421,618.743 651.993,617.750 651.964 C 617.063 651.945,613.800 651.277,610.500 650.480 C 574.828 641.867,521.450 670.769,508.887 705.500 C 507.246 710.037,506.693 713.938,506.617 721.500 C 506.527 730.505,506.802 732.118,509.378 737.712 C 511.273 741.827,514.213 745.806,518.088 749.503 C 528.170 759.119,539.840 763.094,558.000 763.096 C 598.418 763.101,638.207 734.389,647.461 698.540 C 648.810 693.314,649.000 675.340,649.000 552.638 L 649.000 412.696 662.715 413.384 C 739.291 417.227,815.885 438.732,872.238 472.210 L 879.000 476.228 879.000 622.721 C 879.000 752.961,878.832 769.150,877.490 768.635 C 873.035 766.925,861.958 765.819,855.320 766.420 C 815.792 770.002,780.244 800.520,778.243 832.589 C 777.023 852.145,787.781 868.344,806.500 875.135 C 811.505 876.951,814.656 877.312,825.500 877.314 C 836.774 877.316,839.689 876.956,847.451 874.604 C 871.514 867.314,890.894 851.721,900.980 831.536 C 908.562 816.362,908.000 833.608,908.000 616.300 L 908.000 421.019 903.250 417.548 C 894.629 411.248,873.517 399.102,859.900 392.608 C 808.809 368.244,752.759 352.766,689.000 345.414 C 673.075 343.577,605.709 342.664,588.500 344.051"></path>
  </g>
  
  <text x="640" y="470" font-family="Geist, system-ui, sans-serif" font-size="420" font-weight="500" letter-spacing="-12">MeloList</text>
</svg>